HIERARCHY
ROOT Junyuan_V1:Solving:Hips
{
	OFFSET 0.000000 0.000000 0.000000
	CHANNELS 6 Xposition Yposition Zposition Xrotation Yrotation Zrotation
	JOINT Junyuan_V1:Solving:Spine
	{
		OFFSET 0.000000 -12.985630 2.462989
		CHANNELS 6 Xposition Yposition Zposition Xrotation Yrotation Zrotation
		JOINT Junyuan_V1:Solving:Spine1
		{
			OFFSET 0.000000 -8.692390 1.532706
			CHANNELS 6 Xposition Yposition Zposition Xrotation Yrotation Zrotation
			JOINT Junyuan_V1:Solving:Spine2
			{
				OFFSET 0.000000 -8.792902 0.769282
				CHANNELS 6 Xposition Yposition Zposition Xrotation Yrotation Zrotation
				JOINT Junyuan_V1:Solving:Spine3
				{
					OFFSET 0.000000 -8.826483 0.000000
					CHANNELS 6 Xposition Yposition Zposition Xrotation Yrotation Zrotation
					JOINT Junyuan_V1:Solving:Neck
					{
						OFFSET 0.000000 -11.348343 -1.134832
						CHANNELS 6 Xposition Yposition Zposition Xrotation Yrotation Zrotation
						JOINT Junyuan_V1:Solving:Neck1
						{
							OFFSET 0.000000 -7.624485 -0.667056
							CHANNELS 6 Xposition Yposition Zposition Xrotation Yrotation Zrotation
							JOINT Junyuan_V1:Solving:Head
							{
								OFFSET 0.000000 -7.537346 -1.329035
								CHANNELS 6 Xposition Yposition Zposition Xrotation Yrotation Zrotation
								JOINT Junyuan_V1:Solving:HeadEnd
								{
									OFFSET 0.000000 -9.728073 0.000003
									CHANNELS 6 Xposition Yposition Zposition Xrotation Yrotation Zrotation
									End Site
									{
										OFFSET 0.000000 -9.728081 0.000002
									}
								}
							}
						}
					}
					JOINT Junyuan_V1:Solving:RightShoulder
					{
						OFFSET 0.000000 -8.105961 -5.517343
						CHANNELS 6 Xposition Yposition Zposition Xrotation Yrotation Zrotation
						JOINT Junyuan_V1:Solving:RightArm
						{
							OFFSET -18.898018 -0.000008 0.000000
							CHANNELS 6 Xposition Yposition Zposition Xrotation Yrotation Zrotation
							JOINT Junyuan_V1:Solving:RightForeArm
							{
								OFFSET -28.740982 -0.000008 0.000000
								CHANNELS 6 Xposition Yposition Zposition Xrotation Yrotation Zrotation
								JOINT Junyuan_V1:Solving:RightHand
								{
									OFFSET -20.953522 -0.000008 0.000000
									CHANNELS 6 Xposition Yposition Zposition Xrotation Yrotation Zrotation
									JOINT Junyuan_V1:Solving:RightHandThumb1
									{
										OFFSET -4.628059 2.916191 -3.441377
										CHANNELS 6 Xposition Yposition Zposition Xrotation Yrotation Zrotation
										End Site
										{
											OFFSET -6.617699 -0.000004 -6.678891
										}
									}
									JOINT Junyuan_V1:Solving:RightHandMiddle1
									{
										OFFSET -12.341492 -0.000004 0.079112
										CHANNELS 6 Xposition Yposition Zposition Xrotation Yrotation Zrotation
										End Site
										{
											OFFSET -9.402214 -0.000004 0.000000
										}
									}
								}
							}
						}
					}
					JOINT Junyuan_V1:Solving:LeftShoulder
					{
						OFFSET 0.000000 -8.105961 -5.517343
						CHANNELS 6 Xposition Yposition Zposition Xrotation Yrotation Zrotation
						JOINT Junyuan_V1:Solving:LeftArm
						{
							OFFSET 18.898018 -0.000008 0.000000
							CHANNELS 6 Xposition Yposition Zposition Xrotation Yrotation Zrotation
							JOINT Junyuan_V1:Solving:LeftForeArm
							{
								OFFSET 28.740982 -0.000008 0.000000
								CHANNELS 6 Xposition Yposition Zposition Xrotation Yrotation Zrotation
								JOINT Junyuan_V1:Solving:LeftHand
								{
									OFFSET 20.953522 -0.000008 0.000000
									CHANNELS 6 Xposition Yposition Zposition Xrotation Yrotation Zrotation
									JOINT Junyuan_V1:Solving:LeftHandThumb1
									{
										OFFSET 4.628059 2.916191 -3.441377
										CHANNELS 6 Xposition Yposition Zposition Xrotation Yrotation Zrotation
										End Site
										{
											OFFSET 6.617699 -0.000004 -6.678891
										}
									}
									JOINT Junyuan_V1:Solving:LeftHandMiddle1
									{
										OFFSET 12.341492 -0.000004 0.079112
										CHANNELS 6 Xposition Yposition Zposition Xrotation Yrotation Zrotation
										End Site
										{
											OFFSET 9.402214 -0.000004 0.000000
										}
									}
								}
							}
						}
					}
				}
			}
		}
	}
	JOINT Junyuan_V1:Solving:RightUpLeg
	{
		OFFSET -11.141669 0.000000 0.000000
		CHANNELS 6 Xposition Yposition Zposition Xrotation Yrotation Zrotation
		JOINT Junyuan_V1:Solving:RightLeg
		{
			OFFSET 0.000000 42.399242 -0.000006
			CHANNELS 6 Xposition Yposition Zposition Xrotation Yrotation Zrotation
			JOINT Junyuan_V1:Solving:RightFoot
			{
				OFFSET 0.000000 39.245022 -0.000006
				CHANNELS 6 Xposition Yposition Zposition Xrotation Yrotation Zrotation
				JOINT Junyuan_V1:Solving:RightForeFoot
				{
					OFFSET 0.000000 3.261009 -0.000000
					CHANNELS 6 Xposition Yposition Zposition Xrotation Yrotation Zrotation
					JOINT Junyuan_V1:Solving:RightToeBase
					{
						OFFSET 0.000000 0.000000 -12.771147
						CHANNELS 6 Xposition Yposition Zposition Xrotation Yrotation Zrotation
						JOINT Junyuan_V1:Solving:RightToeBaseEnd
						{
							OFFSET 0.000000 0.000000 -4.049008
							CHANNELS 6 Xposition Yposition Zposition Xrotation Yrotation Zrotation
							End Site
							{
								OFFSET 0.000000 -4.049011 0.000000
							}
						}
					}
				}
			}
		}
	}
	JOINT Junyuan_V1:Solving:LeftUpLeg
	{
		OFFSET 11.141669 0.000000 0.000000
		CHANNELS 6 Xposition Yposition Zposition Xrotation Yrotation Zrotation
		JOINT Junyuan_V1:Solving:LeftLeg
		{
			OFFSET 0.000000 42.399242 -0.000006
			CHANNELS 6 Xposition Yposition Zposition Xrotation Yrotation Zrotation
			JOINT Junyuan_V1:Solving:LeftFoot
			{
				OFFSET 0.000000 39.245022 -0.000006
				CHANNELS 6 Xposition Yposition Zposition Xrotation Yrotation Zrotation
				JOINT Junyuan_V1:Solving:LeftForeFoot
				{
					OFFSET 0.000000 3.261009 -0.000000
					CHANNELS 6 Xposition Yposition Zposition Xrotation Yrotation Zrotation
					JOINT Junyuan_V1:Solving:LeftToeBase
					{
						OFFSET 0.000000 0.000000 -12.771147
						CHANNELS 6 Xposition Yposition Zposition Xrotation Yrotation Zrotation
						JOINT Junyuan_V1:Solving:LeftToeBaseEnd
						{
							OFFSET 0.000000 0.000000 -2.960146
							CHANNELS 6 Xposition Yposition Zposition Xrotation Yrotation Zrotation
							End Site
							{
								OFFSET 0.000000 -2.960144 0.000002
							}
						}
					}
				}
			}
		}
	}
}
MOTION
Frames: 4
Frame Time: 0.041667
15.094502 54.617527 -89.808701 -88.173665 1.255543 -179.212525 -0.000000 -12.985618 2.462979 8.599930 0.044472 0.802117 -0.000000 -8.692389 1.532709 -0.645523 -0.174139 0.497406 0.000002 -8.792913 0.769289 -4.498077 -0.537280 -0.273190 0.000003 -8.826490 -0.000007 -1.819893 -0.050124 -0.959299 0.000000 -11.348358 -1.134840 -4.098956 0.701064 3.317921 0.000003 -7.624472 -0.667053 2.448522 2.909119 -0.735894 0.000002 -7.537384 -1.329032 8.646904 0.351664 -1.337509 -0.000000 -9.728058 0.000005 -0.000000 0.000000 -0.000000 0.000000 -8.106003 -5.517347 -0.000003 11.494361 14.310665 -18.898008 0.000017 0.000009 -1.155309 -40.061231 -89.339564 -28.740973 -0.000005 0.000006 -10.564395 -21.578079 -3.923748 -20.953522 0.000008 0.000009 -0.403932 -1.643026 -13.813935 -4.628059 2.916200 -3.441385 -0.000001 0.000005 0.000001 -12.341493 -0.000001 0.079108 0.000003 0.000002 -0.000001 0.000000 -8.106007 -5.517347 -0.000004 -9.315076 -13.094527 18.898014 0.000056 0.000008 -0.255749 46.450781 87.493869 28.740974 -0.000007 -0.000010 -11.011030 22.136105 4.193387 20.953516 -0.000009 0.000006 0.311096 3.169776 -5.608080 4.628080 2.916208 -3.441369 0.000001 0.000002 -0.000002 12.341474 -0.000003 0.079119 0.000002 0.000004 -0.000004 -11.141666 0.000029 -0.000002 3.682351 7.103525 -0.442603 0.000007 42.399216 -0.000007 8.364356 -0.000000 -0.000000 -0.000003 39.245018 -0.000000 -6.137236 -5.495388 -9.188829 0.000002 3.261017 -0.000001 0.000001 0.000000 0.000001 -0.000004 -0.000008 -12.771153 12.048119 0.000003 0.000000 0.000001 0.000008 -4.049019 0.000001 -0.000000 -0.000001 11.141668 0.000019 0.000002 3.337054 -11.875362 1.842080 -0.000001 42.399235 -0.000018 4.280449 -0.000000 -0.000000 -0.000005 39.245010 0.000003 -0.974214 -3.704070 -22.146823 0.000000 3.261010 0.000013 0.000001 -0.000001 0.000002 0.000000 -0.000010 -12.771125 -4.704019 -0.000001 0.000002 -0.000002 0.000000 -2.960140 0.000001 0.000000 -0.000000 
15.099717 54.615101 -89.808319 -88.168351 1.244665 -179.210476 0.000000 -12.985631 2.463000 8.597469 0.042838 0.808671 -0.000000 -8.692421 1.532703 -0.646322 -0.174959 0.501214 -0.000001 -8.792903 0.769294 -4.492911 -0.535059 -0.272319 0.000001 -8.826467 0.000010 -1.812976 -0.046719 -0.971987 0.000002 -11.348346 -1.134816 -4.095148 0.684640 3.336792 -0.000003 -7.624482 -0.667053 2.458401 2.913448 -0.732372 0.000003 -7.537335 -1.329013 8.653022 0.350421 -1.315686 0.000001 -9.728065 -0.000012 -0.000001 0.000000 -0.000000 0.000003 -8.105946 -5.517329 -0.000006 11.498396 14.288657 -18.898026 0.000003 0.000012 -1.134159 -40.089799 -89.349256 -28.740967 -0.000008 0.000008 -10.548308 -21.529779 -3.909329 -20.953527 -0.000005 0.000006 -0.403211 -1.630848 -13.889424 -4.628070 2.916206 -3.441365 0.000008 0.000012 -0.000003 -12.341484 -0.000007 0.079113 0.000008 0.000003 0.000000 0.000004 -8.105946 -5.517328 -0.000008 -9.350206 -13.102631 18.898012 0.000008 0.000019 -0.209900 46.216451 87.436762 28.740959 -0.000009 0.000005 -11.034022 22.263188 4.225152 20.953529 0.000003 0.000005 0.325250 3.146369 -5.904774 4.628071 2.916203 -3.441358 0.000004 -0.000003 -0.000005 12.341459 -0.000004 0.079112 0.000006 0.000003 -0.000002 -11.141672 0.000005 0.000011 3.693859 7.125619 -0.445494 0.000005 42.399239 -0.000007 8.353687 0.000000 0.000000 -0.000009 39.245018 -0.000000 -6.136286 -5.526490 -9.205133 -0.000005 3.261009 -0.000005 0.000000 0.000000 0.000001 -0.000003 -0.000008 -12.771150 12.063485 0.000002 -0.000002 -0.000001 0.000001 -4.049008 0.000004 -0.000000 -0.000001 11.141667 -0.000014 0.000016 3.347997 -11.876021 1.837377 -0.000001 42.399246 -0.000008 4.272144 0.000001 -0.000000 -0.000007 39.245022 0.000005 -0.975674 -3.708929 -22.153015 0.000001 3.261010 0.000018 -0.000000 -0.000003 0.000004 -0.000002 0.000007 -12.771143 -4.684436 -0.000002 -0.000003 -0.000001 0.000000 -2.960139 0.000000 0.000002 0.000003 
15.106397 54.612301 -89.808296 -88.164041 1.228771 -179.203673 0.000000 -12.985640 2.462986 8.592106 0.042586 0.810803 0.000001 -8.692408 1.532719 -0.644939 -0.174902 0.500557 0.000007 -8.792911 0.769282 -4.493998 -0.535885 -0.275193 0.000001 -8.826504 0.000005 -1.802612 -0.045777 -0.978478 0.000001 -11.348353 -1.134846 -4.073595 0.670904 3.332832 -0.000002 -7.624481 -0.667047 2.452630 2.887484 -0.698847 0.000000 -7.537309 -1.329022 8.660473 0.346044 -1.306038 0.000003 -9.728111 -0.000007 0.000000 -0.000000 0.000000 -0.000001 -8.105961 -5.517347 -0.000004 11.496998 14.257351 -18.898016 -0.000011 0.000010 -1.127448 -40.086056 -89.380545 -28.740986 -0.000011 0.000006 -10.599840 -21.441391 -3.913496 -20.953506 0.000006 0.000002 -0.394526 -1.579859 -14.023156 -4.628078 2.916199 -3.441361 -0.000001 0.000002 -0.000004 -12.341494 -0.000006 0.079123 -0.000002 0.000003 -0.000002 -0.000000 -8.105961 -5.517347 -0.000006 -9.380636 -13.104630 18.898008 0.000023 0.000003 -0.168854 45.955500 87.403861 28.740959 -0.000017 0.000012 -11.142596 22.384972 4.289700 20.953535 -0.000012 -0.000006 0.329579 3.082623 -6.105565 4.628051 2.916184 -3.441365 -0.000001 -0.000010 0.000009 12.341455 -0.000013 0.079108 0.000005 -0.000002 0.000001 -11.141664 0.000002 -0.000006 3.710791 7.167023 -0.451896 0.000000 42.399258 -0.000009 8.331114 -0.000001 -0.000000 0.000002 39.245026 -0.000017 -6.126033 -5.587951 -9.200900 0.000001 3.261009 0.000014 -0.000001 0.000000 0.000002 -0.000002 0.000016 -12.771145 12.085682 0.000002 -0.000000 -0.000001 -0.000000 -4.049004 -0.000001 0.000000 0.000000 11.141669 -0.000006 -0.000004 3.358668 -11.886649 1.827450 -0.000004 42.399250 -0.000008 4.263671 -0.000000 0.000000 -0.000013 39.245010 -0.000011 -0.976586 -3.711745 -22.148943 0.000000 3.261010 0.000003 0.000001 -0.000001 0.000003 -0.000002 0.000015 -12.771148 -4.772253 0.000003 0.000000 -0.000003 -0.000000 -2.960131 -0.000001 0.000000 -0.000002 
15.110963 54.606651 -89.806419 -88.159260 1.203747 -179.202061 -0.000002 -12.985637 2.462981 8.583637 0.045545 0.818646 0.000000 -8.692360 1.532705 -0.646733 -0.174120 0.496873 0.000002 -8.792911 0.769278 -4.491315 -0.546233 -0.279644 -0.000001 -8.826485 0.000004 -1.789670 -0.048200 -0.982324 0.000001 -11.348324 -1.134814 -4.064132 0.649271 3.346144 -0.000003 -7.624523 -0.667061 2.460130 2.865703 -0.701579 -0.000000 -7.537352 -1.329043 8.674716 0.342567 -1.282527 -0.000002 -9.728081 0.000003 0.000000 -0.000000 0.000000 0.000002 -8.105965 -5.517324 -0.000004 11.493988 14.221192 -18.898012 0.000004 0.000009 -1.126632 -40.101714 -89.431690 -28.740978 0.000004 0.000014 -10.747374 -21.327807 -3.949089 -20.953522 -0.000001 0.000007 -0.386898 -1.539162 -14.111758 -4.628081 2.916207 -3.441369 -0.000000 -0.000003 0.000001 -12.341461 -0.000001 0.079112 -0.000000 -0.000006 -0.000001 0.000001 -8.105961 -5.517324 -0.000004 -9.415487 -13.099068 18.898022 -0.000043 0.000001 -0.139065 45.716556 87.389012 28.740961 -0.000003 0.000007 -11.383619 22.486567 4.403378 20.953539 0.000005 -0.000001 0.331157 3.022766 -6.255065 4.628075 2.916199 -3.441370 -0.000007 0.000000 0.000001 12.341477 0.000002 0.079120 -0.000003 -0.000000 0.000001 -11.141667 0.000011 -0.000005 3.721393 7.139465 -0.455696 0.000003 42.399239 -0.000008 8.320968 -0.000000 -0.000001 -0.000005 39.245041 -0.000008 -6.131765 -5.589516 -9.205482 -0.000007 3.261002 -0.000004 0.000001 0.000000 0.000001 -0.000004 0.000007 -12.771159 12.092502 0.000002 0.000000 0.000003 -0.000000 -4.049000 -0.000001 -0.000000 -0.000000 11.141665 -0.000002 -0.000006 3.376094 -11.907170 1.825486 -0.000001 42.399254 -0.000005 4.252695 0.000003 -0.000001 -0.000004 39.245010 -0.000014 -0.987515 -3.717864 -22.152330 -0.000002 3.261010 0.000003 0.000001 -0.000001 -0.000000 0.000002 -0.000010 -12.771146 -4.704027 0.000003 0.000007 0.000000 0.000000 -2.960140 -0.000000 0.000003 -0.000001 
